<svg width="356" height="362" viewBox="0 0 356 362" fill="none" xmlns="http://www.w3.org/2000/svg">
<path d="M314.657 311.181C307.364 318.86 300.458 323.807 295.008 327.724C230.91 373.707 155.074 360.308 138.943 357.035C115.146 352.204 69.1373 342.85 35.8706 303.734C-14.4547 244.557 -6.6083 151.315 32.4176 89.7677C39.5554 78.507 77.28 16.0191 153.94 6.0082C200.336 -0.0602065 254.411 12.1668 293.578 44.9826C375.779 113.848 369.929 252.983 314.657 311.181Z" fill="url(#paint0_linear_11_85)"/>
<path d="M243.446 349.318C242.828 349.241 242.274 348.906 241.913 348.416C236.502 341.124 197.154 284.06 249.515 231.905C299.209 182.392 321.743 172.226 324.732 143.134C325.08 139.745 329.68 138.921 331.187 141.987C342.486 164.882 360.073 218.287 301.85 253.344C237.623 292.009 242.892 334.411 245.997 346.458C246.41 348.042 245.083 349.537 243.446 349.318Z" fill="#91B3FA"/>
<path d="M251.409 350.4C249.953 350.207 248.793 349.073 248.574 347.617C247.041 337.696 243.266 300.629 270.58 290.798C300.652 279.963 324.925 307.973 347.034 286.057C348.194 284.897 350.152 285.902 349.869 287.526C347.898 298.967 339.136 325.482 300.162 330.829C258.43 336.537 253.728 341.317 254.578 347.256C254.836 349.086 253.251 350.658 251.409 350.4Z" fill="#91B3FA"/>
<path opacity="0.5" d="M323.276 172.793C322.774 174.957 322.091 176.98 321.292 178.99C320.493 181 319.578 182.958 318.586 184.878C316.602 188.718 314.232 192.351 311.642 195.817C306.424 202.735 300.098 208.804 293.14 213.958C289.662 216.509 285.951 218.866 282.279 220.992C278.71 223.067 275.27 225.386 271.972 227.898C265.388 232.923 259.41 238.747 254.127 245.137C243.614 257.931 236.154 273.366 233.693 289.793C232.443 297.988 232.43 306.388 233.551 314.647C234.672 322.931 237.03 331.035 240.135 338.843C240.303 339.255 240.109 339.732 239.697 339.9C239.285 340.067 238.834 339.874 238.653 339.5C235.007 331.77 232.289 323.563 230.794 315.085C230.021 310.859 229.57 306.556 229.441 302.239C229.338 297.923 229.519 293.581 230.06 289.291C231.103 280.697 233.526 272.271 237.017 264.347C240.522 256.411 245.16 249.002 250.558 242.238C255.97 235.474 262.231 229.418 269.086 224.123C272.526 221.482 276.12 219.047 279.87 216.856C283.529 214.743 287.02 212.605 290.396 210.17C297.134 205.364 303.357 199.811 308.704 193.472C311.423 190.328 313.871 186.965 316.113 183.461C318.316 179.944 320.364 176.246 321.846 172.406L321.872 172.355C322.013 171.981 322.439 171.788 322.825 171.93C323.173 172.071 323.366 172.445 323.276 172.793Z" fill="white"/>
<path opacity="0.5" d="M249.682 343.675C249.811 343.314 249.772 342.979 249.759 342.644L249.721 341.613L249.708 339.577C249.708 338.212 249.738 336.846 249.798 335.48C249.914 332.762 250.146 330.043 250.507 327.338C251.254 321.939 252.478 316.554 254.655 311.477C256.82 306.44 260.08 301.621 264.821 298.477C267.179 296.931 269.846 295.836 272.603 295.282C275.36 294.702 278.195 294.612 280.965 294.857C291.826 296.107 302.481 298.194 313.149 299.882C318.47 300.68 323.856 301.389 329.074 300.668C330.375 300.487 331.651 300.204 332.901 299.804C334.125 299.366 335.336 298.864 336.457 298.207C338.724 296.918 340.721 295.14 342.512 293.169C342.757 292.898 343.182 292.873 343.453 293.117C343.723 293.362 343.736 293.774 343.504 294.045C341.7 296.132 339.626 298.052 337.217 299.495C336.019 300.242 334.73 300.809 333.403 301.299C332.076 301.763 330.71 302.098 329.332 302.33C323.766 303.141 318.264 302.445 312.879 301.711C307.48 300.938 302.159 299.946 296.812 299.083C291.491 298.207 286.093 297.369 280.797 296.751C278.169 296.493 275.528 296.557 272.977 297.073C270.413 297.562 267.965 298.555 265.787 299.959C261.368 302.768 258.173 307.238 255.995 312.07C253.805 316.927 252.491 322.197 251.666 327.505C251.254 330.172 250.983 332.852 250.816 335.545C250.73 336.885 250.674 338.229 250.648 339.577L250.636 341.6L250.648 342.618C250.648 342.94 250.636 343.288 250.803 343.61C250.958 343.907 250.842 344.28 250.545 344.435C250.236 344.589 249.863 344.473 249.708 344.177C249.631 344.022 249.618 343.842 249.682 343.687V343.675Z" fill="white"/>
<path d="M192.928 4.71978C176.565 4.59094 160.06 7.18064 145.45 13.2491C111.462 27.3443 82.6012 64.6695 93.9005 102.794C97.5596 115.188 95.6399 128.845 107.97 134.231C114.644 137.143 132.823 138.869 139.742 136.576C158.115 130.481 170.187 113.784 160.202 95.2692C156.994 89.3425 152.858 83.9312 150.088 77.7855C147.331 71.6398 146.068 64.3474 148.89 58.2274C154.417 46.2195 172.79 42.3929 184.695 42.7536C198.751 43.1788 211.494 50.1362 219.057 62.0669C228.488 76.9351 230.884 95.0244 229.506 112.276C228.024 130.739 220.242 144.847 208.569 159.007C198.519 171.208 187.452 182.92 180.778 197.234C174.645 210.389 172.648 224.961 172.365 239.339C172.313 242.122 158.45 268.406 158.514 276.433C158.514 277.566 174.233 281.316 175.367 281.328C181.293 281.393 198.043 281.586 204.214 281.651C205.49 281.663 206.533 280.659 206.546 279.383C206.984 240.331 218.992 203.096 249.399 176.877C260.466 167.33 272.384 159.561 280.99 147.514C293.243 130.353 299.299 113.449 297.547 92.2672C295.962 72.9153 289.584 53.5505 276.971 38.5405C263.417 22.3968 243.575 12.3214 222.948 7.96657C213.323 5.94377 203.158 4.79708 192.928 4.71978Z" fill="url(#paint1_linear_11_85)"/>
<path d="M223.102 325.431C223.102 343.391 213.156 359.277 195.195 359.277C191.317 359.277 178.124 359.316 174.671 358.066C162.16 353.544 162.109 343.919 162.109 329.85C162.109 311.89 168.177 294.225 186.138 294.225C204.085 294.225 223.102 307.47 223.102 325.431Z" fill="url(#paint2_linear_11_85)"/>
<path d="M177.377 0.622652C161.014 0.493811 144.509 3.0964 129.899 9.15193C95.9105 23.26 67.0501 60.5852 78.3494 98.7093C82.0085 111.091 90.4991 126.681 102.829 132.066C109.503 134.978 117.285 134.785 124.191 132.491C142.564 126.384 154.636 109.699 144.651 91.185C141.443 85.2583 137.307 79.8341 134.537 73.6884C131.78 67.5555 130.517 60.2631 133.339 54.1432C138.866 42.1223 157.239 38.3086 169.144 38.6694C183.2 39.0946 195.943 46.0391 203.506 57.9698C212.937 72.838 215.333 90.9273 213.955 108.179C212.473 126.655 204.691 140.75 193.018 154.923C182.968 167.124 171.914 178.823 165.227 193.15C159.094 206.292 157.097 220.863 156.826 235.242C156.762 238.038 157.703 267.143 157.767 275.17C157.767 276.304 158.682 277.231 159.816 277.244C165.742 277.309 182.492 277.489 188.663 277.566C189.939 277.579 190.982 276.561 190.995 275.286C191.433 236.247 203.441 199.012 233.848 172.78C244.915 163.246 256.833 155.464 265.439 143.43C277.692 126.255 283.748 109.364 281.995 88.1701C280.411 68.8182 274.033 49.4534 261.42 34.4434C247.865 18.3125 228.024 8.22427 207.397 3.88233C197.785 1.84664 187.607 0.71284 177.377 0.622652Z" fill="url(#paint3_linear_11_85)"/>
<path d="M211.597 325.753C211.597 343.713 197.038 358.272 179.077 358.272C161.117 358.272 146.558 343.713 146.558 325.753C146.558 307.792 161.117 293.233 179.077 293.233C197.038 293.233 211.597 307.792 211.597 325.753Z" fill="url(#paint4_linear_11_85)"/>
<path opacity="0.6" d="M89.1076 94.9729C88.9144 94.9729 88.7469 94.844 88.6953 94.6508C86.4277 84.3564 86.0928 68.2513 97.4308 49.9172C108.511 32.0341 124.036 20.0519 143.607 14.3442C164.518 8.22426 189.346 9.53844 217.395 18.2352C217.627 18.2996 217.742 18.5315 217.678 18.7506C217.614 18.9696 217.369 19.0984 217.15 19.0211C163.256 2.32334 120.983 13.4552 98.1394 50.3553C86.9431 68.4445 87.2652 84.3306 89.5199 94.4704C89.5715 94.6894 89.4297 94.9085 89.1978 94.96C89.1721 94.9686 89.142 94.9729 89.1076 94.9729Z" fill="white"/>
<path opacity="0.6" d="M95.9491 111.529C95.8203 111.529 95.6914 111.465 95.6141 111.349C95.511 111.22 93.1661 107.986 90.9887 102.278C90.9114 102.059 91.0145 101.827 91.2335 101.737C91.4397 101.66 91.6845 101.763 91.7746 101.982C93.9005 107.574 96.2583 110.833 96.2841 110.859C96.4258 111.052 96.3743 111.31 96.1939 111.439C96.1166 111.503 96.0393 111.529 95.9491 111.529Z" fill="white"/>
<path opacity="0.6" d="M189.951 304.674C189.891 304.674 189.831 304.662 189.771 304.636C186.434 302.948 182.839 302.085 179.077 302.085C178.845 302.085 178.665 301.904 178.665 301.672C178.665 301.441 178.845 301.247 179.077 301.247C182.968 301.247 186.692 302.136 190.145 303.889C190.351 303.992 190.428 304.249 190.325 304.455C190.261 304.597 190.106 304.674 189.951 304.674Z" fill="white"/>
<path opacity="0.6" d="M165.613 346.135C165.536 346.135 165.446 346.123 165.382 346.071C158.617 341.497 154.572 333.908 154.572 325.753C154.572 316.721 159.519 308.437 167.494 304.159C167.701 304.043 167.945 304.12 168.061 304.327C168.164 304.533 168.087 304.79 167.894 304.893C160.189 309.029 155.409 317.017 155.409 325.753C155.409 333.625 159.313 340.969 165.845 345.375C166.039 345.504 166.09 345.762 165.961 345.955C165.871 346.071 165.742 346.135 165.613 346.135Z" fill="white"/>
<g opacity="0.3">
<path d="M70.9153 61.4485C70.5803 61.8737 69.949 61.9381 69.5367 61.6031C68.7121 60.9331 67.8489 60.3018 66.9728 59.6962C66.5218 59.3999 66.4059 58.7944 66.7022 58.3434C66.7022 58.3434 66.7022 58.3391 66.7022 58.3305C67.0114 57.8796 67.6299 57.7636 68.0808 58.0729C68.9956 58.6913 69.9104 59.3741 70.7736 60.0699C71.1601 60.392 71.2503 60.946 70.9797 61.3712C70.9626 61.3969 70.9411 61.4227 70.9153 61.4485ZM62.4891 57.0937C61.5486 56.6298 60.5694 56.1918 59.5773 55.8052C59.0748 55.612 58.83 55.0451 59.0233 54.5297C59.2294 54.0272 59.7963 53.7824 60.2988 53.9757C61.3296 54.388 62.3603 54.8389 63.3652 55.3285C63.8548 55.5733 64.0481 56.166 63.8162 56.6556C63.799 56.69 63.7775 56.72 63.7518 56.7458C63.4812 57.1581 62.953 57.3256 62.4891 57.0937ZM54.6427 54.2592C53.612 54.0144 52.5555 53.8082 51.5119 53.6536C50.9707 53.5763 50.61 53.0738 50.6873 52.5327C50.7646 52.0044 51.2671 51.6308 51.8082 51.7081C52.9034 51.8756 54.0114 52.0817 55.0937 52.3394C55.6219 52.4683 55.9569 52.9965 55.828 53.5248C55.8023 53.645 55.7593 53.7481 55.6992 53.834C55.4802 54.1819 55.055 54.3622 54.6427 54.2592ZM46.3582 53.2542C45.2889 53.2413 44.2195 53.28 43.163 53.3573C42.6218 53.3959 42.1451 52.9965 42.1065 52.4554C42.0678 51.9143 42.4672 51.4375 43.0084 51.3989C44.1293 51.3087 45.2502 51.27 46.3711 51.2829C46.9122 51.2829 47.3503 51.7339 47.3503 52.275C47.3374 52.4683 47.2859 52.6486 47.1828 52.8033C47.0024 53.0738 46.7061 53.2542 46.3582 53.2542ZM38.048 54.1174C37.0173 54.3365 35.9737 54.607 34.9558 54.9291C34.4404 55.0837 33.8864 54.8003 33.7318 54.272C33.5643 53.7567 33.8607 53.2027 34.376 53.0481C35.4454 52.7131 36.5406 52.4296 37.6228 52.1848C38.1511 52.0689 38.6793 52.4167 38.7953 52.945C38.8468 53.2027 38.7953 53.4732 38.6535 53.6923C38.5247 53.8984 38.3057 54.053 38.048 54.1174ZM30.1372 56.7973C29.1708 57.2354 28.2303 57.7379 27.3027 58.2661C26.8388 58.5367 26.2333 58.3821 25.9627 57.9054C25.6921 57.4286 25.8468 56.836 26.3235 56.5654C27.2898 55.9985 28.2947 55.4831 29.2997 55.0064C29.7893 54.7745 30.382 54.9936 30.601 55.4831C30.7556 55.8052 30.7169 56.166 30.5366 56.4366C30.4464 56.5912 30.3046 56.7071 30.1372 56.7973ZM7.95075 85.8381C7.4225 85.7479 7.04886 85.2454 7.12616 84.7172C7.29366 83.6091 7.51268 82.5011 7.77037 81.4188C7.89921 80.8906 8.42746 80.5685 8.95571 80.6973C9.48395 80.8133 9.81894 81.3544 9.6901 81.8827C9.4453 82.9134 9.23915 83.957 9.07166 85.0006C9.05877 85.1552 9.00724 85.2841 8.92994 85.4C8.72379 85.7092 8.35015 85.8896 7.95075 85.8381ZM23.0123 61.1521C22.1877 61.8092 21.3631 62.505 20.59 63.2265C20.1906 63.5872 19.5722 63.5615 19.1986 63.175C18.8378 62.7755 18.8507 62.1442 19.2501 61.7835C20.0747 61.0233 20.925 60.2889 21.8012 59.6061C22.2392 59.2711 22.8576 59.3484 23.1926 59.7735C23.4503 60.1085 23.4632 60.5724 23.2313 60.9202C23.1797 61.0061 23.1067 61.0834 23.0123 61.1521ZM9.97354 77.4892C9.45818 77.2959 9.21338 76.729 9.41953 76.2137C9.81894 75.1829 10.2828 74.1522 10.7724 73.1472C11.0172 72.6705 11.6098 72.4644 12.0994 72.7092C12.589 72.954 12.7823 73.5466 12.5375 74.0234C12.0737 74.9768 11.6356 75.956 11.2491 76.9352C11.2233 77.0039 11.1932 77.064 11.1589 77.1155C10.9012 77.5021 10.4116 77.6696 9.97354 77.4892ZM17.0598 67.0015C16.3898 67.8132 15.7456 68.6765 15.153 69.5526C14.8437 70.0035 14.2382 70.1195 13.7872 69.8103C13.3492 69.5139 13.2203 68.9084 13.5167 68.4703C13.5167 68.4617 13.521 68.4531 13.5296 68.4446C14.148 67.5298 14.8309 66.615 15.5266 65.7518C15.8745 65.3395 16.4929 65.2751 16.9181 65.6101C17.3046 65.9322 17.3948 66.4991 17.1242 66.9113C17.0985 66.9457 17.077 66.9758 17.0598 67.0015Z" fill="#91B3FA"/>
<path d="M8.51765 92.293C8.62073 92.1255 8.68515 91.9322 8.67226 91.7261C8.65938 91.2236 8.65938 90.7082 8.65938 90.1929C8.67227 89.6517 8.23421 89.2008 7.69308 89.2008C7.13906 89.1879 6.70099 89.626 6.68811 90.18C6.68811 90.7082 6.701 91.2494 6.71388 91.7905C6.72676 92.3316 7.17771 92.7568 7.73173 92.7439C8.06671 92.7311 8.35016 92.5507 8.51765 92.293Z" fill="#91B3FA"/>
</g>
<g opacity="0.3">
<path d="M21.0925 119.53C21.3502 119.131 21.2986 118.589 20.925 118.267C20.5514 117.919 20.1777 117.572 19.817 117.211C19.4305 116.824 18.7991 116.837 18.4255 117.224C18.039 117.61 18.0519 118.229 18.4384 118.615C18.8249 118.989 19.2114 119.362 19.6108 119.723C20.0102 120.084 20.6416 120.058 21.0023 119.659C21.0367 119.616 21.0667 119.573 21.0925 119.53Z" fill="#91B3FA"/>
<path d="M77.8341 113.629C77.5249 114.08 76.9064 114.17 76.4684 113.861C76.0174 113.539 75.9272 112.92 76.2364 112.482C76.842 111.645 77.4218 110.769 77.9758 109.867C78.2464 109.403 78.8519 109.248 79.3158 109.532C79.7925 109.815 79.9342 110.421 79.6507 110.885C79.4188 111.271 79.1783 111.654 78.9292 112.031C78.5814 112.573 78.2077 113.114 77.8341 113.629ZM80.8103 106.62C80.3207 106.414 80.0888 105.834 80.2949 105.332C80.7072 104.378 81.0937 103.386 81.4158 102.407C81.5962 101.892 82.1503 101.608 82.6656 101.776C83.181 101.956 83.4644 102.51 83.284 103.025C82.9362 104.069 82.5368 105.1 82.1116 106.105C82.0858 106.165 82.0601 106.216 82.0343 106.259C81.7766 106.659 81.2612 106.813 80.8103 106.62ZM74.4069 117.752C73.6467 118.551 72.8479 119.324 72.0362 120.045C71.6239 120.406 71.0055 120.367 70.6447 119.955C70.284 119.556 70.3226 118.937 70.722 118.577C71.508 117.881 72.2681 117.146 72.9896 116.399C73.3633 116 73.9817 115.987 74.3811 116.361C74.729 116.695 74.7805 117.224 74.5229 117.61C74.4885 117.662 74.4498 117.709 74.4069 117.752ZM83.4902 98.6191C82.9491 98.516 82.6012 98.0007 82.7043 97.4724C82.8975 96.4546 83.0392 95.3981 83.1552 94.3673C83.2067 93.8262 83.6835 93.4397 84.2246 93.4912C84.7657 93.5428 85.1651 94.0324 85.1136 94.5606C84.9976 95.6558 84.843 96.7509 84.6369 97.8332C84.6111 97.962 84.5639 98.0823 84.4952 98.1939C84.289 98.516 83.8896 98.6964 83.4902 98.6191ZM67.7845 123.305C66.8697 123.911 65.9163 124.49 64.9629 125.019C64.4862 125.276 63.8806 125.109 63.6229 124.632C63.3652 124.155 63.5327 123.55 64.0094 123.292C64.9242 122.79 65.8261 122.249 66.6893 121.669C67.1403 121.372 67.7587 121.488 68.055 121.939C68.2741 122.287 68.2741 122.712 68.055 123.022C67.9906 123.138 67.9004 123.228 67.7845 123.305ZM60.0927 127.273C59.0748 127.673 58.0183 128.021 56.9618 128.33C56.4465 128.484 55.9053 128.175 55.7507 127.66C55.5961 127.132 55.8925 126.59 56.4207 126.436C57.4128 126.152 58.4177 125.805 59.3969 125.431C59.8994 125.238 60.4663 125.495 60.6596 125.998C60.7755 126.307 60.7369 126.642 60.5694 126.887C60.4534 127.067 60.2988 127.196 60.0927 127.273ZM51.7309 129.477C50.6486 129.631 49.5406 129.747 48.4455 129.811C47.9043 129.85 47.4405 129.438 47.4018 128.897C47.3632 128.356 47.7755 127.892 48.3166 127.853C49.3602 127.789 50.4038 127.673 51.4346 127.518C51.9757 127.441 52.4782 127.814 52.5555 128.356C52.5941 128.6 52.5426 128.845 52.4138 129.038C52.2591 129.257 52.0143 129.425 51.7309 129.477ZM43.0857 129.786C41.9905 129.708 40.8825 129.58 39.8002 129.412C39.2591 129.322 38.8983 128.819 38.9885 128.278C39.0658 127.75 39.5812 127.376 40.1094 127.467C41.1402 127.634 42.1838 127.75 43.2274 127.827C43.7685 127.866 44.1808 128.343 44.1422 128.884C44.1293 129.051 44.0649 129.206 43.9747 129.348C43.7943 129.631 43.4593 129.812 43.0857 129.786ZM34.5693 128.201C33.5257 127.879 32.4821 127.505 31.4642 127.106C30.9488 126.9 30.704 126.333 30.9102 125.83C31.1163 125.328 31.6832 125.07 32.1857 125.276C33.152 125.663 34.157 126.011 35.1491 126.32C35.6644 126.475 35.9608 127.029 35.8061 127.544C35.7718 127.638 35.7331 127.72 35.6902 127.789C35.4454 128.149 35.0073 128.33 34.5693 128.201ZM26.6327 124.787C25.9241 124.387 25.2283 123.962 24.5583 123.524C24.3092 123.361 24.0644 123.198 23.8239 123.034C23.373 122.738 23.2442 122.12 23.5663 121.669C23.8755 121.218 24.481 121.102 24.932 121.411C25.1639 121.566 25.3958 121.72 25.6277 121.875C26.2719 122.287 26.929 122.687 27.599 123.073C28.0757 123.344 28.2303 123.936 27.9726 124.413C27.964 124.43 27.9511 124.447 27.934 124.465C27.6505 124.89 27.0836 125.044 26.6327 124.787Z" fill="#91B3FA"/>
<path d="M85.1265 89.7549C85.2295 89.5874 85.2811 89.3941 85.2811 89.1751C85.2553 88.6468 85.2295 88.1057 85.1909 87.5646C85.1393 87.0234 84.6755 86.624 84.1344 86.6627C83.5932 86.7013 83.181 87.178 83.2196 87.7192C83.2711 88.2345 83.2969 88.7499 83.3098 89.2524C83.3356 89.7935 83.7865 90.2187 84.3276 90.2058C84.6626 90.1929 84.959 90.0125 85.1265 89.7549Z" fill="#91B3FA"/>
</g>
<path d="M72.7835 78.2494C72.7191 78.069 72.5516 77.9401 72.3584 77.9272L66.7538 77.8113C65.4138 75.5695 63.7002 73.5209 61.6517 71.7815L62.4505 66.2414C62.4762 66.0481 62.3861 65.8548 62.2057 65.7647L56.2403 62.6982C56.06 62.6081 55.8538 62.6338 55.7121 62.7756L51.6665 66.6408C49.0639 65.9837 46.3969 65.7775 43.7943 65.9966L40.4444 61.5129C40.3285 61.3583 40.1223 61.2939 39.9291 61.3454L33.5386 63.394C33.3582 63.4584 33.2293 63.6259 33.2165 63.8192L33.1005 69.4237C30.8587 70.7637 28.8101 72.4773 27.0707 74.5258L21.5306 73.727C21.3373 73.7013 21.1441 73.7915 21.0539 73.9718L17.9875 79.9372C17.8973 80.1175 17.923 80.3237 18.0648 80.4654L21.93 84.511C21.2729 87.1136 21.0668 89.7806 21.2858 92.3832L16.8021 95.7331C16.6346 95.849 16.5702 96.0552 16.6346 96.2484L18.6832 102.639C18.7476 102.819 18.9151 102.948 19.1084 102.961L24.713 103.077C26.0529 105.319 27.7665 107.367 29.8151 109.107L29.0162 114.647C28.9905 114.84 29.0807 115.033 29.261 115.124L35.2264 118.19C35.4068 118.28 35.6129 118.254 35.7546 118.113L39.8002 114.248C42.4028 114.905 45.0698 115.111 47.6724 114.892L51.0223 119.375C51.1382 119.53 51.3444 119.607 51.5248 119.543L57.9282 117.494C58.1085 117.43 58.2374 117.262 58.2374 117.069L58.3662 111.465C60.6081 110.125 62.6566 108.411 64.396 106.362L69.9361 107.161C70.1294 107.187 70.3227 107.097 70.4128 106.916L73.4793 100.951C73.5695 100.771 73.5437 100.565 73.402 100.423L69.5367 96.3773C70.1938 93.7747 70.3871 91.1077 70.1809 88.5051L74.6646 85.1552C74.8192 85.0393 74.8836 84.8331 74.8321 84.6527L72.7835 78.2494Z" fill="#91B3FA"/>
<path fill-rule="evenodd" clip-rule="evenodd" d="M50.7904 94.9085C48.3295 97.7043 44.0649 97.962 41.269 95.5012C39.9162 94.3158 39.1045 92.6667 39.0014 90.8629C38.8855 89.072 39.4781 87.3326 40.6635 85.9798C43.1372 83.1968 47.4018 82.9263 50.1977 85.3871C52.7359 87.6161 53.1868 91.3654 51.3959 94.1226C51.2155 94.3974 51.0137 94.6594 50.7904 94.9085ZM40.5733 90.7727C40.6506 92.1513 41.269 93.4139 42.3126 94.3287C44.4514 96.2098 47.7239 96.0036 49.6179 93.8649C51.499 91.7261 51.2928 88.4536 49.1541 86.5596C47.0153 84.6785 43.7428 84.8847 41.8488 87.0234C41.677 87.221 41.5224 87.4228 41.385 87.629C40.7794 88.5566 40.496 89.6518 40.5733 90.7727Z" fill="#BDD0FB"/>
<path d="M59.4872 99.5468C59.7964 99.0743 60.0841 98.5805 60.3504 98.0651C60.4277 97.9105 60.505 97.7516 60.5823 97.5884C60.9688 96.7767 61.2909 95.9521 61.5357 95.1018C61.5357 95.0932 61.54 95.0803 61.5486 95.0631C61.5572 95.0373 61.5658 95.0073 61.5744 94.9729C61.5916 94.9042 61.6087 94.8398 61.6259 94.7797C61.6646 94.6122 61.6002 94.4318 61.4584 94.3416C61.4241 94.3244 61.3854 94.3072 61.3425 94.29C61.1363 94.2385 60.9173 94.3673 60.8658 94.5735C60.5694 95.6558 60.1571 96.7123 59.6418 97.7043C57.0907 102.69 52.2205 105.731 47.0282 106.221C44.1293 106.478 41.1273 105.963 38.3572 104.533C37.8762 104.284 37.4081 104.013 36.9529 103.721C33.9122 101.737 31.6575 98.7995 30.5366 95.295C29.2482 91.2752 29.6089 86.9977 31.5415 83.2484C35.5356 75.4922 45.0827 72.4386 52.8261 76.4198C53.3071 76.6689 53.7709 76.9395 54.2176 77.2315C56.1502 78.4941 57.7993 80.1562 59.0233 82.1275C59.0491 82.179 59.0878 82.2219 59.1393 82.2563C59.2552 82.3336 59.4227 82.3336 59.5645 82.2563C59.7448 82.1403 59.7964 81.8956 59.6804 81.7152C58.4049 79.6537 56.6784 77.8886 54.6427 76.5744C54.1703 76.2652 53.685 75.9817 53.1868 75.7241C45.0441 71.5367 35.0203 74.7449 30.8329 82.8876C28.8101 86.8302 28.4365 91.3138 29.7893 95.5398C30.9618 99.2118 33.3324 102.304 36.5277 104.378C37.0001 104.688 37.4897 104.971 37.9965 105.229C41.939 107.264 46.4356 107.638 50.6616 106.285C54.3335 105.1 57.4128 102.742 59.4872 99.5468Z" fill="#BDD0FB"/>
<g opacity="0.3">
<path d="M111.011 47.3404C111.165 47.1214 111.152 46.825 110.972 46.6189C110.637 46.2195 110.276 45.833 109.916 45.4722C109.684 45.2274 109.297 45.2145 109.065 45.4465C108.82 45.6913 108.807 46.0649 109.052 46.3097C109.387 46.6704 109.722 47.0312 110.044 47.4048C110.263 47.6625 110.65 47.6883 110.908 47.4693C110.951 47.4349 110.985 47.3919 111.011 47.3404Z" fill="#91B3FA"/>
<path d="M107.622 44.1451C107.416 44.4028 107.029 44.4415 106.772 44.2353C106.115 43.6942 105.419 43.1917 104.697 42.7408C104.551 42.6377 104.401 42.5389 104.247 42.4444C103.963 42.2641 103.873 41.8904 104.053 41.607C104.234 41.3493 104.607 41.2333 104.891 41.4137C105.054 41.5168 105.213 41.6156 105.367 41.7101C106.115 42.1996 106.836 42.7279 107.532 43.2819C107.777 43.4881 107.828 43.8359 107.661 44.0936C107.652 44.1108 107.639 44.128 107.622 44.1451ZM101.528 40.9885C100.6 40.5505 99.634 40.1768 98.6548 39.8676C98.3327 39.7645 98.1652 39.4167 98.2683 39.0946C98.3714 38.7854 98.7063 38.605 99.0284 38.7081C100.046 39.0302 101.064 39.4296 102.043 39.8805C102.353 40.0222 102.481 40.383 102.34 40.6922C102.331 40.718 102.318 40.7437 102.301 40.7695C102.134 41.0143 101.811 41.1174 101.528 40.9885ZM95.6657 39.1075C94.6607 38.9142 93.63 38.7854 92.5993 38.7209C92.2643 38.7081 92.0195 38.4117 92.0324 38.0767C92.0581 37.7418 92.3416 37.4841 92.6766 37.5098C93.7588 37.5743 94.8282 37.716 95.8847 37.9092C96.2197 37.9737 96.4387 38.2829 96.3743 38.6179C96.3571 38.6952 96.3271 38.7682 96.2841 38.8369C96.1553 39.043 95.9105 39.1461 95.6657 39.1075ZM89.52 38.7209C88.4892 38.7854 87.4585 38.9142 86.4536 39.1075C86.1186 39.1719 85.8093 38.9529 85.7449 38.6179C85.6805 38.2958 85.8995 37.9737 86.2345 37.9092C87.291 37.716 88.3604 37.5743 89.4427 37.5098C89.7777 37.4841 90.0611 37.7418 90.0869 38.0767C90.0998 38.2185 90.0611 38.3473 89.9838 38.4504C89.8936 38.605 89.7132 38.7081 89.52 38.7209ZM83.4645 39.8547C82.4853 40.164 81.5189 40.5376 80.5784 40.9628C80.2821 41.1045 79.9213 40.9757 79.7796 40.6664C79.6379 40.3701 79.7667 40.0093 80.0759 39.8676C81.0551 39.4167 82.073 39.0302 83.0908 38.6952C83.4129 38.5921 83.7608 38.7725 83.851 39.0946C83.9154 39.275 83.8767 39.4553 83.7866 39.6099C83.7092 39.7259 83.6062 39.8161 83.4645 39.8547ZM77.8599 42.4187C76.9966 42.9598 76.1463 43.5654 75.3475 44.2096C75.0898 44.4157 74.7033 44.3771 74.4971 44.1065C74.2781 43.8488 74.3296 43.4623 74.5873 43.2561C75.4248 42.5862 76.3138 41.9549 77.2285 41.388C77.512 41.2205 77.8856 41.2978 78.066 41.5941C78.1949 41.8002 78.182 42.045 78.0531 42.2383C78.0102 42.3156 77.9458 42.3757 77.8599 42.4187ZM73.067 46.2839C72.3584 47.0183 71.6755 47.8042 71.0571 48.6288C70.8638 48.8994 70.4773 48.9509 70.2067 48.7448C69.9361 48.5386 69.8975 48.165 70.0908 47.8944C70.735 47.0312 71.4436 46.2066 72.1909 45.4336C72.4228 45.2016 72.8093 45.1888 73.0541 45.4207C73.2602 45.6268 73.2989 45.9489 73.1443 46.1937C73.1185 46.2195 73.0928 46.2496 73.067 46.2839ZM67.1918 54.2849C66.8826 54.1561 66.728 53.7953 66.8697 53.4861C67.2305 52.6358 67.6428 51.7854 68.0937 50.9608C68.1624 50.8406 68.2355 50.7203 68.3128 50.6001C68.4674 50.3037 68.841 50.2007 69.1373 50.3682C69.4337 50.5357 69.5239 50.9093 69.3564 51.2056C69.2962 51.3173 69.2318 51.4332 69.1631 51.5535C68.725 52.3394 68.3256 53.1511 67.9907 53.9628C67.9735 53.9972 67.9563 54.0315 67.9391 54.0659C67.7716 54.2978 67.4624 54.4009 67.1918 54.2849Z" fill="#91B3FA"/>
</g>
<g opacity="0.3">
<path d="M112.853 78.3266C112.26 79.2028 111.616 80.0531 110.92 80.8519C110.701 81.1096 110.328 81.1354 110.07 80.9164C109.812 80.6973 109.787 80.3108 110.006 80.066C110.663 79.293 111.281 78.4813 111.835 77.6438C112.029 77.3604 112.402 77.2959 112.686 77.4763C112.956 77.6567 113.033 78.0303 112.853 78.3138C112.853 78.3138 112.853 78.3181 112.853 78.3266ZM113.639 75.84C113.343 75.6854 113.227 75.3247 113.368 75.0283C113.832 74.1264 114.232 73.1859 114.58 72.2325C114.696 71.9233 115.043 71.7558 115.366 71.8717C115.675 71.9877 115.842 72.3355 115.726 72.6576C115.366 73.6497 114.94 74.6289 114.464 75.5694C114.446 75.5952 114.434 75.6167 114.425 75.6339C114.257 75.8916 113.922 75.9818 113.639 75.84ZM108.704 83.1324C107.919 83.8539 107.094 84.5239 106.231 85.1295C105.947 85.3227 105.574 85.2583 105.38 84.9877C105.187 84.7172 105.251 84.3306 105.522 84.1374C106.347 83.5576 107.145 82.9134 107.893 82.2305C108.138 82.0115 108.524 82.0244 108.743 82.2821C108.936 82.4882 108.949 82.7846 108.807 83.0165C108.782 83.0594 108.747 83.0981 108.704 83.1324ZM115.894 70.0551C115.572 69.9778 115.366 69.6557 115.443 69.3207C115.675 68.3415 115.842 67.3365 115.945 66.3316C115.984 65.9966 116.28 65.7518 116.615 65.7904C116.95 65.8291 117.182 66.1254 117.156 66.4604C117.04 67.5169 116.86 68.5734 116.628 69.6041C116.611 69.6728 116.585 69.7373 116.551 69.7974C116.409 70.0035 116.151 70.1195 115.894 70.0551ZM103.525 86.8044C102.597 87.3069 101.618 87.7578 100.639 88.1443C100.33 88.2603 99.969 88.1057 99.853 87.7965C99.7242 87.4872 99.8788 87.1394 100.188 87.0105C101.129 86.6498 102.056 86.2117 102.945 85.735C103.242 85.5804 103.615 85.6835 103.77 85.9798C103.873 86.186 103.86 86.4179 103.744 86.5983C103.693 86.6884 103.615 86.7529 103.525 86.8044ZM97.6112 89.1235C96.5805 89.3941 95.5369 89.6002 94.4804 89.7291C94.1583 89.7806 93.8491 89.5487 93.7975 89.2137C93.7589 88.8787 93.9908 88.5695 94.3258 88.5309C95.3179 88.402 96.3228 88.1959 97.302 87.9511C97.637 87.8609 97.9591 88.0541 98.0493 88.3891C98.0879 88.5566 98.0622 88.7241 97.972 88.8658C97.8818 88.9947 97.7658 89.0849 97.6112 89.1235ZM91.3109 89.961C90.2544 89.9739 89.185 89.9223 88.1285 89.8064C87.7935 89.7677 87.5616 89.4714 87.6003 89.1364C87.626 88.8014 87.9353 88.5566 88.2703 88.5953C89.2623 88.7112 90.2802 88.7628 91.298 88.7499C91.633 88.737 91.9036 89.0076 91.9164 89.3426C91.9164 89.4714 91.8778 89.5874 91.8134 89.6904C91.7103 89.845 91.517 89.961 91.3109 89.961Z" fill="#91B3FA"/>
<path d="M117.195 63.5873C117.26 63.4971 117.298 63.3811 117.285 63.2523C117.285 62.724 117.259 62.2087 117.221 61.6933C117.195 61.3583 116.899 61.1135 116.564 61.1393C116.229 61.165 115.984 61.4614 116.01 61.7964C116.036 62.2731 116.061 62.7756 116.074 63.2652C116.087 63.613 116.358 63.8707 116.693 63.8707C116.899 63.8578 117.092 63.7548 117.195 63.5873Z" fill="#91B3FA"/>
</g>
<path d="M108.962 55.4574C108.923 55.3285 108.807 55.2512 108.679 55.2384L104.929 55.161C104.027 53.6665 102.881 52.3008 101.515 51.1283L102.056 47.4177C102.069 47.2889 102.005 47.16 101.889 47.1085L97.8946 45.047C97.7787 44.9955 97.637 45.0084 97.5339 45.0986L94.8411 47.6883C93.0889 47.2502 91.3109 47.1085 89.5715 47.2502L87.3297 44.2611C87.2395 44.1451 87.1107 44.1065 86.9818 44.1451L82.7043 45.5109C82.5755 45.5624 82.4982 45.6784 82.4853 45.8072L82.408 49.5436C80.9134 50.4455 79.5477 51.5922 78.3752 52.9579L74.6646 52.4296C74.5358 52.4038 74.4069 52.4812 74.3554 52.5971L72.294 56.5912C72.2424 56.7071 72.2553 56.8489 72.3455 56.939L74.9352 59.6447C74.4971 61.3969 74.3554 63.175 74.4971 64.9143L71.508 67.1561C71.3921 67.2334 71.3534 67.3752 71.3921 67.4911L72.7578 71.7686C72.8093 71.8975 72.9253 71.9877 73.0541 71.9877L76.7905 72.065C77.6924 73.5724 78.8391 74.9381 80.2048 76.1106L79.6765 79.8083C79.6508 79.9372 79.7281 80.066 79.844 80.1304L83.8381 82.179C83.9541 82.2434 84.0958 82.2176 84.186 82.1275L86.8916 79.5378C88.6439 79.9758 90.4219 80.1175 92.1612 79.9758L94.4031 82.9778C94.4804 83.0809 94.6221 83.1324 94.738 83.0809L99.0156 81.7152C99.1444 81.6765 99.2346 81.5606 99.2346 81.4317L99.3119 77.6824C100.819 76.7806 102.185 75.6339 103.358 74.2682L107.055 74.8093C107.184 74.8222 107.313 74.7578 107.377 74.6418L109.426 70.6477C109.49 70.5318 109.465 70.39 109.374 70.287L106.798 67.5942C107.223 65.842 107.364 64.064 107.223 62.3246L110.225 60.0828C110.328 59.9926 110.379 59.8637 110.328 59.7349L108.962 55.4574Z" fill="#91B3FA"/>
<path fill-rule="evenodd" clip-rule="evenodd" d="M94.3128 66.6537C93.5011 67.5813 92.3802 68.1225 91.1562 68.1998C89.9322 68.2771 88.7469 67.8777 87.8193 67.066C85.9253 65.391 85.7449 62.4792 87.4198 60.5724C89.0948 58.6784 92.0066 58.498 93.9006 60.173C94.8282 60.9847 95.3693 62.1056 95.4466 63.3296C95.5111 64.3216 95.2534 65.288 94.7251 66.1125C94.6049 66.3015 94.4674 66.4819 94.3128 66.6537ZM88.631 66.1512C89.3009 66.7439 90.177 67.0531 91.0789 66.9887C91.9808 66.9371 92.8054 66.5248 93.3981 65.8549C93.9907 65.172 94.3 64.3088 94.2355 63.4069C94.184 62.505 93.7717 61.6804 93.1017 61.0749C91.6974 59.8509 89.5586 59.9797 88.3217 61.3841C88.2101 61.5043 88.1113 61.6332 88.0254 61.7706C87.1235 63.1621 87.3554 65.0303 88.631 66.1512Z" fill="#BDD0FB"/>
<path d="M100.368 69.8876C100.575 69.5612 100.768 69.2262 100.948 68.8826C101.309 68.1869 101.592 67.4525 101.799 66.7052C101.807 66.6708 101.816 66.6365 101.824 66.6021C101.902 66.3444 101.786 66.0739 101.579 65.9322C101.528 65.8978 101.468 65.872 101.399 65.8548C101.077 65.7775 100.742 65.9708 100.652 66.2929C100.471 66.9887 100.201 67.6715 99.8659 68.3157C99.8487 68.3501 99.8316 68.3887 99.8144 68.4317C99.0156 69.952 97.856 71.2146 96.4645 72.1552C95.7043 72.6577 94.8669 73.0571 93.9779 73.3534C93.9693 73.3534 93.965 73.3577 93.965 73.3663C93.9392 73.3663 93.9135 73.3706 93.8877 73.3792C91.2851 74.2166 88.515 73.9847 86.0928 72.735C85.775 72.5718 85.4701 72.3957 85.178 72.2067C83.2068 70.9312 81.7509 69.0243 81.0294 66.7567C80.1919 64.1541 80.4238 61.3841 81.6736 58.9619C82.9233 56.5268 85.0492 54.723 87.6518 53.8984C90.2544 53.0609 93.0245 53.2929 95.4467 54.5426C95.7645 54.6972 96.0651 54.869 96.3486 55.058C97.6112 55.8826 98.6677 56.9648 99.4665 58.2275C99.5094 58.3134 99.5696 58.3778 99.6469 58.4207C99.8401 58.5496 100.098 58.5625 100.304 58.4336C100.587 58.2532 100.665 57.8796 100.497 57.5961C99.6082 56.166 98.4229 54.9549 97.0185 54.0401C96.6921 53.834 96.3571 53.6407 96.0136 53.4603C93.295 52.056 90.19 51.7983 87.2781 52.7388C84.3663 53.6665 81.9957 55.6764 80.5913 58.395C79.1869 61.1135 78.9292 64.2186 79.8698 67.1304C80.6815 69.6685 82.3049 71.7944 84.5081 73.2246C84.8345 73.4393 85.1737 73.6368 85.5259 73.8172C90.7955 76.5229 97.2118 74.7449 100.368 69.8876Z" fill="#BDD0FB"/>
<path d="M234.105 111.142L216.428 129.219L237.623 123.55L234.105 111.142Z" fill="#91B3FA"/>
<path d="M339.252 118.628L238.834 123.498C236.257 123.627 234.105 121.566 234.105 118.976V77.6695C234.105 73.173 237.661 69.501 242.158 69.3593L332.656 66.5634C339.394 66.5634 344.857 72.0263 344.857 78.7647V112.74C344.857 115.884 342.396 118.473 339.252 118.628Z" fill="#91B3FA"/>
<path opacity="0.9" fill-rule="evenodd" clip-rule="evenodd" d="M241.836 121.836C240.238 121.836 238.731 121.231 237.571 120.123C236.321 118.937 235.638 117.34 235.638 115.626V78.391C235.638 73.9976 239.156 70.4544 243.652 70.3256L331.277 67.6844C337.925 67.6844 343.324 72.9539 343.324 79.4218V111.529C343.324 114.621 340.85 117.159 337.681 117.301L242.145 121.823C242.042 121.832 241.939 121.836 241.836 121.836ZM331.29 68.1095L243.665 70.7637C239.414 70.8925 236.077 74.2424 236.077 78.391V115.626C236.077 117.224 236.708 118.705 237.867 119.801C239.014 120.909 240.534 121.475 242.119 121.398L337.668 116.876C340.592 116.734 342.886 114.389 342.886 111.529V79.4218C342.886 73.1859 337.681 68.1095 331.29 68.1095Z" fill="white"/>
<path d="M330.994 75.6467L250.7 78.6487C249.914 78.6745 249.283 79.2027 249.309 79.8212L249.347 80.5169C249.373 81.1225 250.017 81.5992 250.803 81.5605L331.097 78.6358C331.896 78.5972 332.514 78.0818 332.488 77.4634L332.45 76.6904C332.424 76.0848 331.78 75.621 330.994 75.6467Z" fill="url(#paint5_linear_11_85)"/>
<path d="M323.804 95.9778L243.511 98.967C242.725 98.9927 242.106 99.5338 242.132 100.165L242.158 100.9C242.184 101.531 242.841 102.008 243.614 101.982L323.92 99.07C324.706 99.0442 325.325 98.5031 325.299 97.8589L325.273 97.0601C325.247 96.4288 324.59 95.9521 323.804 95.9778Z" fill="url(#paint6_linear_11_85)"/>
<path d="M333.184 104.481L243.678 107.857C242.789 107.896 242.106 108.437 242.132 109.081L242.158 109.815C242.184 110.447 242.905 110.936 243.781 110.911L333.3 107.599C334.176 107.574 334.872 107.02 334.846 106.375L334.807 105.564C334.782 104.932 334.06 104.443 333.184 104.481Z" fill="url(#paint7_linear_11_85)"/>
<path d="M286.969 87.6289L243.201 88.9045C242.776 88.9173 242.454 89.51 242.493 90.2186L242.531 91.0432C242.557 91.7518 242.931 92.3059 243.356 92.293L287.123 91.1076C287.561 91.0948 287.884 90.5021 287.845 89.7935L287.806 88.8787C287.768 88.1829 287.394 87.6161 286.969 87.6289Z" fill="url(#paint8_linear_11_85)"/>
<path d="M335.194 86.1215L293.823 87.3068C293.424 87.3197 293.114 87.8995 293.153 88.621L293.192 89.4327C293.23 90.1413 293.578 90.6954 293.978 90.6954L335.361 89.5873C335.761 89.5744 336.07 88.9947 336.031 88.2732L335.98 87.3713C335.954 86.6626 335.593 86.1086 335.194 86.1215Z" fill="url(#paint9_linear_11_85)"/>
<path d="M81.622 346.496C81.622 346.496 80.7974 351.173 80.3852 355.811C80.2305 357.628 81.622 359.2 83.4387 359.277C89.6231 359.535 102.829 360.037 107.571 359.818C108.292 359.793 108.756 359.058 108.485 358.401C108.266 357.847 107.841 357.396 107.3 357.139L85.4744 347.115L81.622 346.496Z" fill="url(#paint10_linear_11_85)"/>
<path d="M80.9391 343.739L81.6091 349.344C81.6091 349.344 85.4357 351.122 88.0383 349.112L86.4535 342.876L80.9391 343.739Z" fill="url(#paint11_linear_11_85)"/>
<path d="M81.4417 238.36C81.1582 239.829 79.8956 311.4 87.5487 343.481C87.6775 344.01 87.407 344.538 86.9174 344.744C85.7449 345.221 83.4387 345.916 80.6815 346.02C79.8311 346.045 79.0581 345.491 78.8262 344.667C76.6359 337.22 66.1482 299.933 64.7825 264.321C63.2622 224.51 64.7825 262.956 64.7825 262.956L65.6844 238.36H81.4417Z" fill="url(#paint12_linear_11_85)"/>
<path d="M56.5109 348.931C56.5109 348.931 55.1967 351.302 53.9212 357.589C53.6893 358.723 54.4881 359.806 55.6348 359.921C57.6705 360.128 60.8142 360.385 63.3266 360.36C64.4862 360.36 65.4009 359.342 65.2592 358.195C64.9758 355.902 64.1125 352.139 61.4326 349.202L56.5109 348.931Z" fill="#252525"/>
<path d="M55.3513 341.729L56.9103 350.207C56.9103 350.207 58.4435 351.341 61.4842 350.516L60.7498 341.394L55.3513 341.729Z" fill="url(#paint13_linear_11_85)"/>
<path d="M51.164 240.55C44.9023 278.326 52.5168 333.896 55.0808 344.77C55.2354 345.44 55.7765 345.955 56.4594 346.058C57.606 346.251 59.4871 346.406 61.3424 345.865C61.9866 345.685 62.4376 345.105 62.4633 344.435C62.8112 335.648 62.1928 281.651 68.0164 260.315C68.3127 259.232 68.9827 258.292 69.8846 257.647L81.2097 249.595L82.0729 236.595L51.164 240.55Z" fill="url(#paint14_linear_11_85)"/>
<path d="M91.0274 168.992C72.281 168.683 51.5892 173.927 51.5892 173.927C45.9975 206.536 50.61 244.158 50.61 244.158C65.1303 247.972 81.506 241.826 81.506 241.826C83.9154 228.194 95.1761 189.826 95.1761 189.826C104.337 188.692 111.887 186.051 118.11 182.559C113.368 177.057 111.127 170.061 110.16 165.926C103.525 167.987 96.8123 169.095 91.0274 168.992Z" fill="url(#paint15_linear_11_85)"/>
<path d="M146.429 141.369C144.587 139.152 142.255 140.196 142.255 140.196C139.497 151.856 125.029 161.313 110.16 165.926C111.127 170.061 113.368 177.057 118.11 182.559C142.77 168.683 146.429 141.369 146.429 141.369Z" fill="url(#paint16_linear_11_85)"/>
<path d="M145.978 141.935C146.171 142.554 143.942 143.482 142.628 140.982C142.577 139.784 141.855 134.63 142.564 133.651C146.39 128.446 153.799 121.914 153.799 121.914C155.048 123.15 154.018 124.362 154.018 124.362L150.423 128.111C151.183 129.464 152.098 130.61 152.523 132.259C152.858 133.496 152.652 134.823 152.021 135.957C151.389 137.104 150.526 138.573 149.714 139.732C148.181 141.923 145.978 141.935 145.978 141.935Z" fill="url(#paint17_linear_11_85)"/>
<path d="M148.851 130.533L145.579 133.316L144.548 136.073L147.473 139.32C147.473 139.32 148.452 133.831 149.186 132.646C149.908 131.461 149.534 130.881 148.851 130.533Z" fill="url(#paint18_linear_11_85)"/>
<path d="M58.7785 192.08L51.5892 173.927C51.5892 173.927 34.0668 185.819 31.1937 200.919C34.5049 201.151 40.5218 202.014 46.4227 204.99C47.7111 197.865 58.7785 192.08 58.7785 192.08Z" fill="url(#paint19_linear_11_85)"/>
<path d="M74.0848 209.165C74.0848 209.165 54.4237 220.284 47.7884 210.788C46.4098 208.817 46.0748 206.858 46.4227 204.99C40.5217 202.014 34.5049 201.151 31.1937 200.919C30.3175 205.467 30.7814 210.298 33.4484 215.194C45.0827 236.453 76.6874 214.009 76.6874 214.009L74.0848 209.165Z" fill="url(#paint20_linear_11_85)"/>
<path d="M71.727 223.234L82.4595 185.741C82.5754 185.316 82.9491 185.007 83.3871 184.955C85.3326 184.736 90.963 184.092 97.4694 183.538C105.303 182.881 114.412 182.34 119.849 182.804C120.622 182.868 121.086 183.68 120.738 184.376C117.646 190.637 104.929 216.083 98.5517 224.419C98.3456 224.703 98.0235 224.857 97.6756 224.857L72.7706 224.626C72.0491 224.626 71.5209 223.93 71.727 223.221V223.234Z" fill="#91B3FA"/>
<path d="M98.5775 180.291L106.359 179.003C106.785 178.926 107.12 179.325 106.991 179.724L106.218 182.056C106.153 182.263 105.973 182.404 105.754 182.43L98.2683 183.435C97.8817 183.487 97.5596 183.139 97.6498 182.752L98.1265 180.717C98.1781 180.498 98.3584 180.33 98.5775 180.291Z" fill="#BDD0FB"/>
<path d="M92.7539 186.875L93.3981 183.538C93.4625 183.203 93.7331 182.958 94.081 182.92L109.8 181.322C110.328 181.271 110.753 181.76 110.624 182.276L109.619 186.437C109.542 186.772 109.258 187.004 108.911 187.03L93.5527 187.803C93.0502 187.829 92.6637 187.378 92.7539 186.875Z" fill="#BDD0FB"/>
<path d="M74.3168 214.177C74.3168 214.177 72.8222 208.018 73.4277 205.841C74.0333 203.663 75.1929 200.854 79.0968 201.486C82.9877 202.104 87.5874 203.74 87.5874 203.74C87.5874 203.74 87.3555 206.588 84.3921 205.673L86.2217 207.09C86.2217 207.09 85.964 209.358 83.4645 208.147L85.1652 210.028C85.1652 210.028 84.0958 211.896 82.2534 210.698C80.4109 209.5 79.5348 214.911 74.3168 214.177Z" fill="url(#paint21_linear_11_85)"/>
<path d="M72.0362 153.776L66.0709 171.028C65.9678 171.311 66.0838 171.633 66.3543 171.775C67.9777 172.677 73.84 175.279 80.9005 170.796C81.6349 170.332 82.1374 169.572 82.2533 168.709L84.1859 153.776H72.0362Z" fill="url(#paint22_linear_11_85)"/>
<path d="M85.0234 137.787C85.0234 137.787 91.5685 150.13 90.7311 155.103C89.8936 160.089 81.7766 159.728 74.6775 155.683L69.73 142.373L85.0234 137.787Z" fill="url(#paint23_linear_11_85)"/>
<path d="M74.9996 149.151C75.283 149.022 75.3861 148.661 75.2186 148.403C74.6903 147.604 73.7112 145.968 73.3891 144.538C73.3891 144.538 72.2166 143.778 76.391 142.773C80.5655 141.781 86.8014 140.222 88.1027 136.679C89.3782 133.213 86.0283 124.49 80.6814 131.435C80.4753 131.705 80.0759 131.705 79.8697 131.435C78.9936 130.301 76.6874 127.93 73.4921 129.361C70.4901 130.713 70.1551 132.904 70.1938 134.012C70.2067 134.334 69.9232 134.591 69.6011 134.527C68.0808 134.244 64.4475 133.999 62.7468 137.722C61.3553 140.789 62.2572 142.528 63.0947 143.378C63.3523 143.662 63.2364 144.113 62.8756 144.229C61.8835 144.525 60.5951 145.375 60.724 147.707C60.9044 150.929 64.499 150.645 65.5297 150.49C65.6972 150.478 65.8647 150.529 65.9807 150.658C66.8568 151.624 70.8251 155.76 75.1155 156.263C75.4891 156.301 75.7726 155.94 75.6567 155.58L73.8013 150.181C73.7111 149.936 73.8271 149.666 74.0719 149.55L74.9996 149.151Z" fill="#252525"/>
<path d="M75.7468 149.911C75.7468 149.911 71.0699 146.715 70.7349 149.408C70.3999 152.101 74.9352 153.312 77.1899 152.307L75.7468 149.911Z" fill="url(#paint24_linear_11_85)"/>
<defs>
<linearGradient id="paint0_linear_11_85" x1="291.092" y1="724.206" x2="-148.127" y2="178.732" gradientUnits="userSpaceOnUse">
<stop stop-color="white"/>
<stop offset="1" stop-color="#E9EFFD"/>
</linearGradient>
<linearGradient id="paint1_linear_11_85" x1="943.8" y1="-198.578" x2="29.8408" y2="580.446" gradientUnits="userSpaceOnUse">
<stop stop-color="#E1473D"/>
<stop offset="1" stop-color="#E9605A"/>
</linearGradient>
<linearGradient id="paint2_linear_11_85" x1="934.987" y1="-243.93" x2="57.2842" y2="504.185" gradientUnits="userSpaceOnUse">
<stop stop-color="#E1473D"/>
<stop offset="1" stop-color="#E9605A"/>
</linearGradient>
<linearGradient id="paint3_linear_11_85" x1="-214.39" y1="220.567" x2="584.669" y2="-625.596" gradientUnits="userSpaceOnUse">
<stop stop-color="#FF928E"/>
<stop offset="1" stop-color="#FE7062"/>
</linearGradient>
<linearGradient id="paint4_linear_11_85" x1="307.339" y1="252.468" x2="122.851" y2="456.32" gradientUnits="userSpaceOnUse">
<stop stop-color="#FF928E"/>
<stop offset="1" stop-color="#FE7062"/>
</linearGradient>
<linearGradient id="paint5_linear_11_85" x1="249.309" y1="75.6467" x2="332.488" y2="75.6467" gradientUnits="userSpaceOnUse">
<stop stop-color="#DAE3FE"/>
<stop offset="1" stop-color="#E9EFFD"/>
</linearGradient>
<linearGradient id="paint6_linear_11_85" x1="242.132" y1="95.9778" x2="325.299" y2="95.9778" gradientUnits="userSpaceOnUse">
<stop stop-color="#DAE3FE"/>
<stop offset="1" stop-color="#E9EFFD"/>
</linearGradient>
<linearGradient id="paint7_linear_11_85" x1="242.132" y1="104.481" x2="334.846" y2="104.481" gradientUnits="userSpaceOnUse">
<stop stop-color="#DAE3FE"/>
<stop offset="1" stop-color="#E9EFFD"/>
</linearGradient>
<linearGradient id="paint8_linear_11_85" x1="242.48" y1="87.6289" x2="287.845" y2="87.6289" gradientUnits="userSpaceOnUse">
<stop stop-color="#DAE3FE"/>
<stop offset="1" stop-color="#E9EFFD"/>
</linearGradient>
<linearGradient id="paint9_linear_11_85" x1="293.153" y1="86.1215" x2="336.031" y2="86.1215" gradientUnits="userSpaceOnUse">
<stop stop-color="#DAE3FE"/>
<stop offset="1" stop-color="#E9EFFD"/>
</linearGradient>
<linearGradient id="paint10_linear_11_85" x1="122.194" y1="333.187" x2="-2.22756" y2="468.509" gradientUnits="userSpaceOnUse">
<stop stop-color="#252525"/>
<stop offset="1" stop-color="#1A0F91"/>
</linearGradient>
<linearGradient id="paint11_linear_11_85" x1="80.9391" y1="342.876" x2="88.0383" y2="342.876" gradientUnits="userSpaceOnUse">
<stop stop-color="#FEBBBA"/>
<stop offset="1" stop-color="#FF928E"/>
</linearGradient>
<linearGradient id="paint12_linear_11_85" x1="302.301" y1="373.695" x2="224.107" y2="479.653" gradientUnits="userSpaceOnUse">
<stop stop-color="#252525"/>
<stop offset="1" stop-color="#1A0F91"/>
</linearGradient>
<linearGradient id="paint13_linear_11_85" x1="55.3513" y1="341.394" x2="61.4842" y2="341.394" gradientUnits="userSpaceOnUse">
<stop stop-color="#FEBBBA"/>
<stop offset="1" stop-color="#FF928E"/>
</linearGradient>
<linearGradient id="paint14_linear_11_85" x1="249.36" y1="341.394" x2="178.369" y2="437.613" gradientUnits="userSpaceOnUse">
<stop stop-color="#252525"/>
<stop offset="1" stop-color="#1A0F91"/>
</linearGradient>
<linearGradient id="paint15_linear_11_85" x1="37.3393" y1="166.853" x2="152.394" y2="-31.3686" gradientUnits="userSpaceOnUse">
<stop stop-color="#252525"/>
<stop offset="1" stop-color="#4042E2"/>
</linearGradient>
<linearGradient id="paint16_linear_11_85" x1="114.58" y1="107.651" x2="101.193" y2="145.917" gradientUnits="userSpaceOnUse">
<stop stop-color="#FEBBBA"/>
<stop offset="1" stop-color="#FF928E"/>
</linearGradient>
<linearGradient id="paint17_linear_11_85" x1="132.759" y1="116.026" x2="119.695" y2="153.325" gradientUnits="userSpaceOnUse">
<stop stop-color="#FEBBBA"/>
<stop offset="1" stop-color="#FF928E"/>
</linearGradient>
<linearGradient id="paint18_linear_11_85" x1="148.439" y1="152.011" x2="159.674" y2="129.348" gradientUnits="userSpaceOnUse">
<stop stop-color="#FEBBBA"/>
<stop offset="1" stop-color="#FF928E"/>
</linearGradient>
<linearGradient id="paint19_linear_11_85" x1="33.7576" y1="163.117" x2="165.24" y2="-63.4113" gradientUnits="userSpaceOnUse">
<stop stop-color="#252525"/>
<stop offset="1" stop-color="#4042E2"/>
</linearGradient>
<linearGradient id="paint20_linear_11_85" x1="30.7942" y1="200.919" x2="76.6874" y2="200.919" gradientUnits="userSpaceOnUse">
<stop stop-color="#FEBBBA"/>
<stop offset="1" stop-color="#FF928E"/>
</linearGradient>
<linearGradient id="paint21_linear_11_85" x1="73.286" y1="201.396" x2="87.5874" y2="201.396" gradientUnits="userSpaceOnUse">
<stop stop-color="#FEBBBA"/>
<stop offset="1" stop-color="#FF928E"/>
</linearGradient>
<linearGradient id="paint22_linear_11_85" x1="66.0322" y1="153.776" x2="84.1859" y2="153.776" gradientUnits="userSpaceOnUse">
<stop stop-color="#FEBBBA"/>
<stop offset="1" stop-color="#FF928E"/>
</linearGradient>
<linearGradient id="paint23_linear_11_85" x1="80.5011" y1="168.992" x2="57.2195" y2="154.794" gradientUnits="userSpaceOnUse">
<stop stop-color="#FEBBBA"/>
<stop offset="1" stop-color="#FF928E"/>
</linearGradient>
<linearGradient id="paint24_linear_11_85" x1="80.5526" y1="162.382" x2="61.2007" y2="150.581" gradientUnits="userSpaceOnUse">
<stop stop-color="#FEBBBA"/>
<stop offset="1" stop-color="#FF928E"/>
</linearGradient>
</defs>
</svg>
